<?xml version="1.0" encoding="UTF-8"?>
<svg id="Layer_1" data-name="Layer 1" xmlns="http://www.w3.org/2000/svg" version="1.1" viewBox="0 0 1400 980">
  <defs>
    <style>
      .cls-1 {
        fill: #ffe576;
      }

      .cls-1, .cls-2, .cls-3, .cls-4, .cls-5, .cls-6, .cls-7, .cls-8, .cls-9, .cls-10, .cls-11, .cls-12, .cls-13, .cls-14, .cls-15, .cls-16 {
        stroke-width: 0px;
      }

      .cls-2 {
        fill: #58595b;
      }

      .cls-3 {
        fill: #f6921e;
      }

      .cls-4 {
        fill: #dbb716;
      }

      .cls-5 {
        fill: #e2ba13;
      }

      .cls-6 {
        fill: #a31324;
      }

      .cls-7 {
        fill: #f1f2f2;
      }

      .cls-8 {
        fill: #414042;
      }

      .cls-9 {
        fill: #a0152d;
      }

      .cls-10 {
        fill: #c6a105;
      }

      .cls-11 {
        fill: #d1d3d4;
      }

      .cls-12 {
        fill: #ff6174;
      }

      .cls-13 {
        fill: #840f23;
      }

      .cls-14 {
        fill: #fff;
      }

      .cls-15 {
        fill: #be1e2d;
      }

      .cls-16 {
        fill: #efcd26;
      }
    </style>
  </defs>
  <rect class="cls-2" x="631.2" y="632.3" width="3.3" height="23.6"/>
  <path class="cls-3" d="M621.6,622.1l-6.4-5.7c-.6-.6-.2-1.6.6-1.5l8.6.4c.5,0,1-.4.9-.9l-.4-8.6c0-.8,1-1.3,1.5-.6l5.7,6.4c.4.4,1,.4,1.3,0l5.7-6.4c.6-.6,1.6-.2,1.5.6l-.4,8.6c0,.5.4,1,.9.9l8.6-.4c.8,0,1.3,1,.6,1.5l-6.4,5.7c-.4.4-.4,1,0,1.3l6.4,5.7c.6.6.2,1.6-.6,1.5l-8.6-.4c-.5,0-1,.4-.9.9l.4,8.6c0,.8-1,1.3-1.5.6l-5.7-6.4c-.4-.4-1-.4-1.3,0l-5.7,6.4c-.6.6-1.6.2-1.5-.6l.4-8.6c0-.5-.4-1-.9-.9l-8.6.4c-.8,0-1.3-1-.6-1.5l6.4-5.7c.3-.3.3-.9,0-1.3"/>
  <path class="cls-8" d="M714.1,751.3c0,44.9-36.4,81.3-81.3,81.3s-81.3-36.4-81.3-81.3,36.4-81.3,81.3-81.3,81.3,36.4,81.3,81.3"/>
  <path class="cls-8" d="M658.3,674.2h-51v-12.2c0-4.2,3.4-7.6,7.6-7.6h35.9c4.2,0,7.6,3.4,7.6,7.6v12.2h0Z"/>
  <path class="cls-11" d="M600.2,699.7c-4.3,1-7.7,4.4-8.7,8.7-.4,1.8-1.7,3.4-3.4,4.1-4.5,2-9.5-2-8.4-6.9,2-8.8,9-15.8,17.8-17.8,4.8-1.1,8.9,3.8,6.9,8.4-.9,1.8-2.4,3.1-4.2,3.5"/>
  <path class="cls-11" d="M616.5,684.7c2.2,2.2,2.2,5.7,0,7.9s-5.7,2.2-7.9,0-2.2-5.7,0-7.9c2.1-2.2,5.7-2.2,7.9,0"/>
  <rect class="cls-2" x="810.7" y="713" width="17.9" height="2.5" transform="translate(-265 788.8) rotate(-45)"/>
  <path class="cls-3" d="M825.4,696.4l-.3-6.5c0-.6.8-1,1.2-.5l4.4,4.8c.3.3.7.3,1,0l4.4-4.8c.4-.5,1.2,0,1.2.5l-.3,6.5c0,.4.3.7.7.7l6.5-.3c.6,0,1,.7.5,1.2l-4.8,4.4c-.3.3-.3.7,0,1l4.8,4.4c.5.4,0,1.2-.5,1.2l-6.5-.3c-.4,0-.7.3-.7.7l.3,6.5c0,.6-.8,1-1.2.5l-4.4-4.8c-.3-.3-.7-.3-1,0l-4.4,4.8c-.4.5-1.2,0-1.2-.5l.3-6.5c0-.4-.3-.7-.7-.7l-6.5.3c-.6,0-1-.7-.5-1.2l4.8-4.4c.3-.3.3-.7,0-1l-4.8-4.4c-.5-.4,0-1.2.5-1.2l6.5.3c.4,0,.7-.3.7-.7"/>
  <path class="cls-2" d="M805.7,815.5c-24.1,24.1-63.2,24.1-87.3,0s-24.1-63.2,0-87.3,63.2-24.1,87.3,0c24.2,24.1,24.2,63.2,0,87.3"/>
  <path class="cls-2" d="M817.2,744.1l-27.4-27.4,5.2-5.2c3-3,7.8-3,10.7,0l16.7,16.7c3,3,3,7.8,0,10.7l-5.2,5.2Z"/>
  <path class="cls-11" d="M738.4,734.1c-3.3.8-5.8,3.4-6.6,6.6-.3,1.4-1.3,2.6-2.6,3.1-3.5,1.5-7.2-1.5-6.3-5.2,1.5-6.6,6.8-12,13.5-13.5,3.7-.8,6.7,2.9,5.2,6.3-.7,1.4-1.8,2.4-3.2,2.7"/>
  <path class="cls-11" d="M750.7,722.7c1.7,1.7,1.7,4.4,0,6-1.7,1.7-4.4,1.7-6,0-1.7-1.7-1.7-4.4,0-6,1.7-1.7,4.4-1.7,6,0"/>
  <path class="cls-8" d="M342,527.5h-3c-1.7,0-3.2-1.4-3.2-3.2v-181.5c0-1.7,1.4-3.2,3.2-3.2h3c1.7,0,3.2,1.4,3.2,3.2v181.6c0,1.7-1.4,3.1-3.2,3.1"/>
  <rect class="cls-2" x="271.4" y="349.7" width="4.8" height="34.7"/>
  <path class="cls-3" d="M266.6,380l-.4-7.2c-.1-1,1.2-1.6,1.9-.8l4.8,5.3c.4.5,1.2.5,1.6,0l4.8-5.3c.7-.8,2-.2,1.9.8l-.2,7.2c0,.6.5,1.2,1.2,1.2l7.2-.4c1-.1,1.6,1.2.8,1.9l-5.3,4.8c-.5.4-.5,1.2,0,1.6l5.3,4.8c.8.7.2,2-.8,1.9l-7.2-.4c-.7,0-1.2.5-1.2,1.2l.4,7.2c.1,1-1.2,1.6-1.9.8l-4.8-5.3c-.4-.5-1.2-.5-1.6,0l-4.8,5.3c-.7.8-2,.2-1.9-.8l.4-7.2c0-.7-.5-1.2-1.2-1.2l-7.2.4c-1,.1-1.6-1.2-.8-1.9l5.3-4.8c.5-.4.5-1.2,0-1.6l-5.3-4.8c-.8-.7-.2-2,.8-1.9l7.2.4c.5,0,1.1-.5,1-1.2"/>
  <path class="cls-9" d="M302.5,181.9h-35.6c-.3,0-.4-.3-.3-.5l17.8-30.8,14.7-25.5c1.5-2.6,5.2-2.6,6.7,0l14.7,25.5,17.8,30.8c.1.2,0,.5-.3.5h-35.5Z"/>
  <path class="cls-15" d="M336.3,180.5h-68.2c-4.7,0-8.5,4.9-8.5,10.9v150.4h0c0,.3,0,.6.1.8,0,.1.1.3.1.4s.1.3.1.4c.1.2.1.4.2.5,0,.1.1.2.1.3s.1.2.1.3c3.6,7.1,21.2,12.4,42.4,12.4s38.8-5.4,42.4-12.4c.1-.1.1-.2.1-.3s.1-.2.1-.3c.1-.2.1-.3.2-.5,0-.1.1-.3.1-.4s.1-.2.1-.4c0-.3.1-.6.1-.8h0v-149c0-6.8-4.3-12.3-9.5-12.3"/>
  <path class="cls-12" d="M278.9,270h-3.1c-1.8,0-3.3-1.5-3.3-3.3v-53.5c0-1.8,1.5-3.3,3.3-3.3h3.1c1.8,0,3.3,1.5,3.3,3.3v53.5c0,1.9-1.4,3.3-3.3,3.3"/>
  <path class="cls-12" d="M283.1,279.7c0,3.1-2.6,5.7-5.7,5.7s-5.7-2.6-5.7-5.7,2.6-5.7,5.7-5.7,5.7,2.6,5.7,5.7"/>
  <path class="cls-9" d="M1066.4,197.9h-18.2l23.7,23.7v-16.4c0-3.5-2.4-6.4-5.5-7.3"/>
  <rect class="cls-2" x="1029" y="371.2" width="4.2" height="30.2"/>
  <path class="cls-8" d="M1047.5,523.1h-1.8c-1.7,0-3.2-1.4-3.2-3.2v-157.3c0-1.7,1.4-3.2,3.2-3.2h1.8c1.7,0,3.2,1.4,3.2,3.2v157.4c0,1.7-1.4,3.1-3.2,3.1"/>
  <path class="cls-3" d="M1025.8,402.4l-.3-6c0-.6.7-.9,1.1-.4l4,4.5c.2.3.7.3.9,0l4-4.5c.4-.4,1.1-.1,1.1.4l-.3,6c0,.4.3.7.7.7l6-.3c.6,0,.9.7.5,1.1l-4.5,4c-.3.2-.3.7,0,.9l4.5,4c.4.4,0,1.1-.5,1.1l-6-.3c-.4,0-.7.3-.7.7l.3,6c0,.6-.7.9-1.1.4l-4-4.5c-.2-.3-.7-.3-.9,0l-4,4.5c-.4.4-1.1.1-1.1-.4l.3-6c0-.4-.3-.7-.7-.7l-6,.3c-.6,0-.9-.7-.4-1.1l4.5-4c.3-.2.3-.7,0-.9l-4.5-4c-.4-.4,0-1.1.4-1.1l6,.3c.4-.1.7-.4.7-.7"/>
  <path class="cls-7" d="M1071.9,205.2c0-4.2-3.4-7.6-7.6-7.6h-35.3c-4.2,0-7.6,3.4-7.6,7.6v156.4c0,7.3,11.3,13.2,25.2,13.2s25.2-5.9,25.2-13.2c.1-.3.1-156.4.1-156.4"/>
  <path class="cls-9" d="M1071.9,246.8l-47.5-47.6c-1.8,1.4-3,3.6-3,6v16.8l50.4,50.4v-25.6h0Z"/>
  <polygon class="cls-9" points="1071.9 297.1 1021.4 246.7 1021.4 271 1071.9 321.4 1071.9 297.1"/>
  <path class="cls-9" d="M1021.4,346.8v14.7c0,7.3,11.3,13.2,25.2,13.2s1.8,0,2.6-.1l-27.8-27.8Z"/>
  <path class="cls-9" d="M1021.4,320.9l47.2,47.2c2.1-1.9,3.3-4.1,3.3-6.5v-14.6l-50.4-50.4v24.3h0Z"/>
  <path class="cls-15" d="M1046.6,202.2h-40.2c-4.2,0-6.8-4.5-4.7-8.2l20.1-34.8,20.1-34.8c2.1-3.6,7.3-3.6,9.4,0l20.1,34.8,20.1,34.8c2.1,3.6-.5,8.2-4.7,8.2h-40.2Z"/>
  <path class="cls-12" d="M1020.3,182l-1.6-.9c-1.6-.9-2.2-2.9-1.3-4.5l15.7-27.9c.9-1.6,2.9-2.2,4.5-1.3l1.6.9c1.6.9,2.2,2.9,1.3,4.5l-15.7,27.9c-.9,1.7-2.9,2.2-4.5,1.3"/>
  <path class="cls-12" d="M1019.9,189.4c-1.2,2-3.7,2.8-5.8,1.6-2-1.2-2.8-3.7-1.6-5.8,1.2-2,3.7-2.8,5.8-1.6,2,1.2,2.8,3.7,1.6,5.8"/>
  <path class="cls-8" d="M1050.1,759h-3.4v-197.7c0-.8.6-1.4,1.4-1.4h.6c.8,0,1.4.6,1.4,1.4v197.7Z"/>
  <path class="cls-15" d="M1006.9,591.5l-1,1-13.8,13.8-17.2,17.2-15.7,15.7h0c0,0-.2.2-.2.3h0c0,0,0,.2,0,.3s0,0,0,.2h0v.2c-1.1,3.3,2.7,10.5,9.3,17.1s13.7,10.4,17.1,9.3h0s0,0,0,0c0,0,0,0,.2,0s0,0,.2,0h0c0-.2.2-.3.3-.3h0l15.7-15.7,17.2-17.2,13.4-13.4,1.6-1.6-27.1-26.6Z"/>
  <path class="cls-6" d="M1033.8,618.2c-2,2-9.7-2.3-17.1-9.8-7.4-7.4-11.8-15.1-9.8-17.1s9.7,2.3,17.1,9.8,11.8,15.1,9.8,17.1"/>
  <path class="cls-13" d="M1026.7,611.6c-.8.8-4.4-1.5-8.1-5.1-3.6-3.6-5.9-7.2-5.1-8.1.8-.8,4.4,1.5,8.1,5.1,3.7,3.6,5.9,7.2,5.1,8.1"/>
  <rect class="cls-8" x="1012.8" y="591.3" width="39.9" height="2.1" transform="translate(-116.3 904.1) rotate(-45)"/>
  <path class="cls-3" d="M1029.5,622.5l-1.3-.7c-10.8-5.4-19.5-14.1-24.8-24.8l-.7-1.3-5.5,5.5c5.5,11.8,15,21.3,26.8,26.8l5.5-5.5Z"/>
  <path class="cls-3" d="M993.5,658.5l-1.3-.7c-10.8-5.4-19.5-14.1-24.8-24.8l-.7-1.3-5.5,5.5c5.5,11.8,15,21.3,26.8,26.8l5.5-5.5Z"/>
  <path class="cls-12" d="M978.2,629.2l-.5-.5c-.7-.7-.7-1.8,0-2.5l16.2-16.2c.7-.7,1.8-.7,2.5,0l.5.5c.7.7.7,1.8,0,2.5l-16.2,16.2c-.7.7-1.8.7-2.5,0"/>
  <path class="cls-12" d="M976.7,633.7c-1,1-2.6,1-3.5,0-1-1-1-2.6,0-3.5,1-1,2.6-1,3.5,0,1,1,1,2.5,0,3.5"/>
  <path class="cls-15" d="M1006.9,651.1l-1,1-13.8,13.8-17.2,17.2-15.7,15.7h0c0,0-.2.2-.2.3h0c0,.2,0,.2,0,.3s0,0,0,.2h0v.2c-1.1,3.3,2.7,10.5,9.3,17.1s13.7,10.4,17.1,9.3h0s0,0,0,0c0,0,0,0,.2,0s0,0,.2,0h0c0-.2.2-.3.3-.3h0l15.7-15.7,17.2-17.2,13.4-13.4,1.6-1.6-27.1-26.6Z"/>
  <path class="cls-6" d="M1033.8,677.8c-2,2-9.7-2.3-17.1-9.8-7.4-7.4-11.8-15.1-9.8-17.1s9.7,2.3,17.1,9.8c7.4,7.5,11.8,15.1,9.8,17.1"/>
  <path class="cls-13" d="M1026.7,671.2c-.8.8-4.4-1.5-8.1-5.1-3.6-3.6-5.9-7.2-5.1-8.1.8-.8,4.4,1.5,8.1,5.1,3.7,3.7,5.9,7.3,5.1,8.1"/>
  <rect class="cls-8" x="1012.8" y="650.9" width="40" height="2.1" transform="translate(-158.5 921.6) rotate(-45)"/>
  <path class="cls-3" d="M1029.5,682.2l-1.3-.7c-10.8-5.3-19.5-14.1-24.8-24.8l-.7-1.3-5.5,5.5c5.5,11.8,15,21.3,26.8,26.8l5.5-5.5Z"/>
  <path class="cls-3" d="M993.5,718.2l-1.3-.7c-10.8-5.4-19.5-14.1-24.8-24.8l-.7-1.3-5.5,5.5c5.5,11.8,15,21.3,26.8,26.8l5.5-5.5Z"/>
  <path class="cls-12" d="M978.2,688.8l-.5-.5c-.7-.7-.7-1.8,0-2.5l16.2-16.2c.7-.7,1.8-.7,2.5,0l.5.5c.7.7.7,1.8,0,2.5l-16.2,16.2c-.7.7-1.8.7-2.5,0"/>
  <path class="cls-12" d="M976.7,693.4c-1,1-2.6,1-3.5,0-1-1-1-2.6,0-3.5,1-1,2.6-1,3.5,0,1,.9,1,2.5,0,3.5"/>
  <path class="cls-15" d="M1006.9,710l-1,1-13.8,13.8-17.3,17.2-15.7,15.7h0c0,0-.2.2-.2.3h0c0,0,0,.2,0,.3s0,0,0,.2h0v.2c-1.1,3.3,2.7,10.5,9.3,17.1s13.7,10.4,17.1,9.3h0s0,0,0,0c0,0,0,0,.2,0s0,0,.2,0h0c0-.2.2-.3.3-.3h0l15.7-15.7,17.2-17.2,13.4-13.4,1.6-1.6-27-26.6Z"/>
  <path class="cls-6" d="M1033.8,736.8c-2,2-9.7-2.3-17.1-9.8-7.4-7.4-11.8-15.1-9.8-17.1s9.7,2.3,17.1,9.8c7.4,7.4,11.8,15,9.8,17.1"/>
  <path class="cls-13" d="M1026.7,730.1c-.8.8-4.4-1.5-8.1-5.1-3.6-3.6-5.9-7.2-5.1-8.1.8-.8,4.4,1.5,8.1,5.1,3.7,3.7,5.9,7.3,5.1,8.1"/>
  <rect class="cls-8" x="1012.6" y="709.9" width="40" height="2.1" transform="translate(-200.2 938.8) rotate(-45)"/>
  <path class="cls-3" d="M1029.5,741.1l-1.3-.7c-10.8-5.4-19.5-14.1-24.8-24.8l-.7-1.3-5.5,5.5c5.5,11.8,15,21.3,26.8,26.8l5.5-5.5Z"/>
  <path class="cls-3" d="M993.5,777.1l-1.3-.7c-10.8-5.4-19.5-14.1-24.8-24.8l-.7-1.3-5.5,5.5c5.5,11.8,15,21.3,26.8,26.8l5.5-5.5Z"/>
  <path class="cls-12" d="M978.2,747.8l-.5-.5c-.7-.7-.7-1.8,0-2.5l16.2-16.2c.7-.7,1.8-.7,2.5,0l.5.5c.7.7.7,1.8,0,2.5l-16.2,16.2c-.7.7-1.8.7-2.5,0"/>
  <path class="cls-12" d="M976.7,752.3c-1,1-2.6,1-3.5,0-1-1-1-2.6,0-3.5,1-1,2.6-1,3.5,0,1,.9,1,2.5,0,3.5"/>
  <rect class="cls-8" x="1047.3" y="757.1" width="2.1" height="73.1"/>
  <path class="cls-15" d="M1089.2,591.5l1,1,13.8,13.8,17.2,17.2,15.7,15.7h0c0,0,.2.2.2.3h0c0,0,0,.2,0,.3s0,0,0,.2h0v.2c1.1,3.3-2.7,10.5-9.3,17.1s-13.7,10.4-17.1,9.3h0s0,0,0,0c0,0,0,0-.2,0s0,0-.2,0h0c0-.2-.2-.3-.3-.3h0l-15.7-15.7-17.2-17.2-13.4-13.4-1.6-1.6,27.1-26.6Z"/>
  <path class="cls-6" d="M1062.3,618.2c2,2,9.7-2.3,17.1-9.8,7.4-7.4,11.8-15.1,9.8-17.1s-9.7,2.3-17.1,9.8-11.8,15.1-9.8,17.1"/>
  <path class="cls-13" d="M1069.4,611.6c.8.8,4.4-1.5,8.1-5.1,3.6-3.6,5.9-7.2,5.1-8.1-.8-.8-4.4,1.5-8.1,5.1s-6,7.2-5.1,8.1"/>
  <rect class="cls-8" x="1062.3" y="572.4" width="2.1" height="39.9" transform="translate(-107.4 925.4) rotate(-45)"/>
  <path class="cls-3" d="M1066.6,622.5l1.3-.7c10.8-5.4,19.5-14.1,24.8-24.8l.7-1.3,5.5,5.5c-5.5,11.8-15,21.3-26.8,26.8l-5.5-5.5Z"/>
  <path class="cls-3" d="M1102.6,658.5l1.3-.7c10.8-5.4,19.5-14.1,24.8-24.8l.7-1.3,5.5,5.5c-5.5,11.8-15,21.3-26.8,26.8l-5.5-5.5Z"/>
  <path class="cls-12" d="M1117.8,629.2l.5-.5c.7-.7.7-1.8,0-2.5l-16.2-16.2c-.7-.7-1.8-.7-2.5,0l-.5.5c-.7.7-.7,1.8,0,2.5l16.2,16.2c.7.7,1.9.7,2.5,0"/>
  <path class="cls-12" d="M1119.4,633.7c1,1,2.6,1,3.5,0,1-1,1-2.6,0-3.5-1-1-2.6-1-3.5,0-1,1-1,2.5,0,3.5"/>
  <path class="cls-15" d="M1089.2,651.1l1,1,13.8,13.8,17.2,17.2,15.7,15.7h0c0,0,.2.2.2.3h0c0,.2,0,.2,0,.3s0,0,0,.2h0v.2c1.1,3.3-2.7,10.5-9.3,17.1-6.6,6.6-13.7,10.4-17.1,9.3h0s0,0,0,0c0,0,0,0-.2,0s0,0-.2,0h0c0-.2-.2-.3-.3-.3h0l-15.7-15.7-17.2-17.2-13.4-13.4-1.6-1.6,27.1-26.6Z"/>
  <path class="cls-6" d="M1062.3,677.8c2,2,9.7-2.3,17.1-9.8,7.4-7.4,11.8-15.1,9.8-17.1s-9.7,2.3-17.1,9.8c-7.5,7.5-11.8,15.1-9.8,17.1"/>
  <path class="cls-13" d="M1069.4,671.2c.8.8,4.4-1.5,8.1-5.1,3.6-3.6,5.9-7.2,5.1-8.1-.8-.8-4.4,1.5-8.1,5.1-3.7,3.7-6,7.3-5.1,8.1"/>
  <rect class="cls-8" x="1062.3" y="632.1" width="2.1" height="39.9" transform="translate(-149.6 942.9) rotate(-45)"/>
  <path class="cls-3" d="M1066.6,682.2l1.3-.7c10.8-5.3,19.5-14.1,24.8-24.8l.7-1.3,5.5,5.5c-5.5,11.8-15,21.3-26.8,26.8l-5.5-5.5Z"/>
  <path class="cls-3" d="M1102.6,718.2l1.3-.7c10.8-5.4,19.5-14.1,24.8-24.8l.7-1.3,5.5,5.5c-5.5,11.8-15,21.3-26.8,26.8l-5.5-5.5Z"/>
  <path class="cls-12" d="M1117.8,688.8l.5-.5c.7-.7.7-1.8,0-2.5l-16.2-16.2c-.7-.7-1.8-.7-2.5,0l-.5.5c-.7.7-.7,1.8,0,2.5l16.2,16.2c.7.7,1.9.7,2.5,0"/>
  <path class="cls-12" d="M1119.4,693.4c1,1,2.6,1,3.5,0,1-1,1-2.6,0-3.5-1-1-2.6-1-3.5,0-1,.9-1,2.5,0,3.5"/>
  <path class="cls-15" d="M1089.2,710l1,1,13.8,13.8,17.2,17.2,15.7,15.7h0c0,0,.2.2.2.3h0c0,0,0,.2,0,.3s0,0,0,.2h0v.2c1.1,3.3-2.7,10.5-9.3,17.1-6.6,6.6-13.7,10.4-17.1,9.3h0s0,0,0,0c0,0,0,0-.2,0s0,0-.2,0h0c0-.2-.2-.3-.3-.3h0l-15.7-15.7-17.2-17.2-13.4-13.4-1.6-1.6,27.1-26.6Z"/>
  <path class="cls-6" d="M1062.3,736.8c2,2,9.7-2.3,17.1-9.8,7.4-7.4,11.8-15.1,9.8-17.1s-9.7,2.3-17.1,9.8c-7.5,7.4-11.8,15-9.8,17.1"/>
  <path class="cls-13" d="M1069.4,730.1c.8.8,4.4-1.5,8.1-5.1,3.6-3.6,5.9-7.2,5.1-8.1-.8-.8-4.4,1.5-8.1,5.1-3.7,3.7-6,7.3-5.1,8.1"/>
  <rect class="cls-8" x="1062.3" y="691" width="2.1" height="39.9" transform="translate(-191.3 960.1) rotate(-45)"/>
  <path class="cls-3" d="M1066.6,741.1l1.3-.7c10.8-5.4,19.5-14.1,24.8-24.8l.7-1.3,5.5,5.5c-5.5,11.8-15,21.3-26.8,26.8l-5.5-5.5Z"/>
  <path class="cls-3" d="M1102.6,777.1l1.3-.7c10.8-5.4,19.5-14.1,24.8-24.8l.7-1.3,5.5,5.5c-5.5,11.8-15,21.3-26.8,26.8l-5.5-5.5Z"/>
  <path class="cls-12" d="M1117.8,747.8l.5-.5c.7-.7.7-1.8,0-2.5l-16.2-16.2c-.7-.7-1.8-.7-2.5,0l-.5.5c-.7.7-.7,1.8,0,2.5l16.2,16.2c.7.7,1.9.7,2.5,0"/>
  <path class="cls-12" d="M1119.4,752.3c1,1,2.6,1,3.5,0,1-1,1-2.6,0-3.5-1-1-2.6-1-3.5,0-1,.9-1,2.5,0,3.5"/>
  <path class="cls-15" d="M1007.2,770.3l-1,1-13.8,13.8-17.2,17.2-15.7,15.7h0c0,0-.2.2-.2.3h0c0,0,0,.2,0,.3s0,0,0,.2h0v.2c-1.1,3.3,2.7,10.5,9.3,17.1s13.7,10.4,17.1,9.3h.2c0,0,0,0,.2,0s0,0,.2,0h0c0-.2.2-.3.3-.3h0l15.7-15.7,17.2-17.2,13.4-13.4,1.6-1.6-27.1-26.7Z"/>
  <path class="cls-6" d="M1034.2,797c-2,2-9.7-2.3-17.1-9.8-7.4-7.4-11.8-15.1-9.8-17.1s9.7,2.3,17.1,9.8c7.4,7.4,11.8,15.1,9.8,17.1"/>
  <path class="cls-13" d="M1027.1,790.4c-.8.8-4.4-1.5-8.1-5.1-3.6-3.6-5.9-7.2-5.1-8.1.8-.8,4.4,1.5,8.1,5.1,3.6,3.7,5.9,7.3,5.1,8.1"/>
  <rect class="cls-8" x="1013.3" y="770.1" width="39.9" height="2.1" transform="translate(-242.7 956.1) rotate(-45)"/>
  <path class="cls-3" d="M1029.8,801.3l-1.3-.7c-10.8-5.3-19.5-14.1-24.8-24.8l-.7-1.3-5.5,5.5c5.5,11.8,15,21.3,26.8,26.8l5.5-5.5Z"/>
  <path class="cls-3" d="M993.8,837.3l-1.3-.7c-10.8-5.4-19.5-14.1-24.8-24.8l-.7-1.3-5.5,5.5c5.5,11.8,15,21.3,26.8,26.8l5.5-5.5Z"/>
  <path class="cls-12" d="M978.6,808l-.5-.5c-.7-.7-.7-1.8,0-2.5l16.2-16.2c.7-.7,1.8-.7,2.5,0l.5.5c.7.7.7,1.8,0,2.5l-16.2,16.2c-.7.7-1.8.7-2.5,0"/>
  <path class="cls-12" d="M977.1,812.5c-1,1-2.6,1-3.5,0-1-1-1-2.6,0-3.5,1-1,2.6-1,3.5,0,1,1,1,2.6,0,3.5"/>
  <path class="cls-15" d="M1089.6,770.3l1,1,13.8,13.8,17.2,17.2,15.7,15.7h0c0,0,.2.2.2.3h0c0,0,0,.2,0,.3s0,0,0,.2c0,0,0,0,0,0h0c1.1,3.4-2.7,10.6-9.3,17.2-6.6,6.6-13.7,10.4-17.1,9.3h-.2c0,0-.2,0-.2,0,0,0,0,0-.2,0h0c0-.2-.2-.3-.3-.3h0l-15.7-15.7-17.2-17.2-13.4-13.4-1.6-1.6,27-26.7Z"/>
  <path class="cls-6" d="M1062.7,797c2,2,9.7-2.3,17.1-9.8,7.4-7.4,11.8-15.1,9.8-17.1s-9.7,2.3-17.1,9.8c-7.5,7.4-11.9,15.1-9.8,17.1"/>
  <path class="cls-13" d="M1069.7,790.4c.8.8,4.4-1.5,8.1-5.1,3.6-3.6,5.9-7.2,5.1-8.1-.8-.8-4.4,1.5-8.1,5.1-3.6,3.7-5.9,7.3-5.1,8.1"/>
  <rect class="cls-8" x="1062.6" y="751.3" width="2.1" height="39.9" transform="translate(-233.8 978) rotate(-45)"/>
  <path class="cls-3" d="M1067,801.3l1.3-.7c10.8-5.3,19.5-14.1,24.8-24.8l.7-1.3,5.5,5.5c-5.5,11.8-15,21.3-26.8,26.8l-5.5-5.5Z"/>
  <path class="cls-3" d="M1103,837.3l1.3-.7c10.8-5.4,19.5-14.1,24.8-24.8l.7-1.3,5.5,5.5c-5.5,11.8-15,21.3-26.8,26.8l-5.5-5.5Z"/>
  <path class="cls-12" d="M1118.2,808l.5-.5c.7-.7.7-1.8,0-2.5l-16.2-16.2c-.7-.7-1.8-.7-2.5,0l-.5.5c-.7.7-.7,1.8,0,2.5l16.2,16.2c.7.7,1.8.7,2.5,0"/>
  <path class="cls-12" d="M1119.7,812.5c1,1,2.6,1,3.5,0,1-1,1-2.6,0-3.5-1-1-2.6-1-3.5,0-1,1-1,2.6,0,3.5"/>
  <path class="cls-3" d="M1039.8,829.3l-.4-8.6c0-1.2,1.5-1.9,2.3-1l5.8,6.4c.5.6,1.4.6,2,0l5.8-6.4c.8-.9,2.4-.3,2.3,1l-.4,8.6c0,.8.6,1.4,1.4,1.4l8.6-.4c1.2,0,1.9,1.5.9,2.3l-6.4,5.8c-.6.5-.6,1.4,0,2l6.4,5.8c.9.8.3,2.4-.9,2.3l-8.6-.4c-.8,0-1.4.6-1.4,1.4l.4,8.6c0,1.2-1.5,1.9-2.3.9l-5.8-6.4c-.5-.6-1.4-.6-2,0l-5.8,6.4c-.8.9-2.4.3-2.3-.9l.4-8.6c0-.8-.6-1.4-1.4-1.4l-8.6.4c-1.2,0-1.9-1.5-.9-2.3l6.4-5.8c.6-.5.6-1.4,0-2l-6.4-5.8c-.9-.8-.3-2.4.9-2.3l8.6.4c.8,0,1.5-.7,1.4-1.4"/>
  <rect class="cls-7" x="602.6" y="431.3" width="112.4" height="3.1" transform="translate(15.9 889) rotate(-68.7)"/>
  <path class="cls-8" d="M672.8,399l-1.3-.5c-1.3-.5-2-2-1.5-3.4l50.7-129.8c.5-1.3,2-2,3.4-1.5l1.3.5c1.3.5,2,2,1.5,3.4l-50.7,129.8c-.6,1.4-2.1,2.1-3.4,1.5"/>
  <path class="cls-3" d="M722.1,232.5l5-15.1c.5-1.5,2.6-1.5,3.1-.1l5.6,14.9c.3.9,1.4,1.3,2.3.9l14.2-7.1c1.4-.7,2.9.7,2.2,2.2l-6.5,14.5c-.4.9,0,1.9,1,2.2l15.1,5c1.5.5,1.5,2.6,0,3.1l-14.9,5.6c-.9.3-1.3,1.4-.9,2.3l7.1,14.2c.7,1.4-.7,2.9-2.2,2.2l-14.5-6.5c-.9-.4-1.9.1-2.2,1l-5,15.1c-.5,1.5-2.6,1.5-3.1.1l-5.6-14.9c-.3-.9-1.4-1.3-2.3-.9l-14.2,7.1c-1.4.7-2.9-.7-2.2-2.2l6.5-14.5c.4-.9,0-1.9-1-2.2l-15.1-5c-1.5-.5-1.5-2.6,0-3.1l14.9-5.6c.9-.3,1.3-1.4.9-2.3l-7.1-14.2c-.7-1.4.7-2.9,2.2-2.2l14.5,6.5c.9.4,1.9,0,2.2-1"/>
  <path class="cls-3" d="M740.2,228.5l-2.8-1.1c16.9-43.2,65.8-64.6,109-47.7l-1.1,2.8c-41.6-16.3-88.8,4.3-105.1,46"/>
  <path class="cls-3" d="M762.8,232.1l-2-2.2c23.1-20.1,58.2-17.7,78.3,5.4l-2.2,2c-19-22-52.2-24.3-74.1-5.2"/>
  <path class="cls-3" d="M859.1,199l9.6-1.1c1.5-.2,2.5,1.4,1.7,2.7l-5,8.3c-.3.5-.3,1.1,0,1.7l4,8.8c.6,1.3-.6,2.8-2,2.5l-9.4-2.2c-.6-.1-1.2,0-1.6.4l-7.1,6.5c-1.1,1-2.8.3-3-1.2l-.8-9.6c0-.6-.4-1.1-.9-1.4l-8.4-4.8c-1.3-.7-1.2-2.6.2-3.2l8.9-3.8c.5-.2.9-.7,1-1.3l1.9-9.4c.3-1.4,2.1-1.9,3.1-.8l6.3,7.3c.5.4,1,.7,1.6.6"/>
  <path class="cls-3" d="M849.9,241.8l5.6-.6c.9-.1,1.4.8,1,1.6l-2.9,4.8c-.2.3-.2.7,0,1l2.3,5.1c.4.8-.3,1.6-1.2,1.4l-5.5-1.3c-.3-.1-.7,0-.9.2l-4.2,3.8c-.6.6-1.7.2-1.7-.7l-.5-5.6c0-.3-.2-.6-.5-.8l-4.9-2.8c-.7-.4-.7-1.5,0-1.9l5.2-2.2c.3-.1.5-.4.6-.7l1.1-5.5c.2-.8,1.2-1.1,1.8-.5l3.7,4.3c.3.3.6.4,1,.4"/>
  <path class="cls-3" d="M734.4,218.4c12.8-32.8-3.4-69.9-36.2-82.7l1.1-2.8c34.3,13.4,51.3,52.3,37.9,86.6l-2.8-1.1Z"/>
  <path class="cls-3" d="M688,126.1l-4.2-4.9c-.6-.7-1.9-.4-2.1.5l-1.3,6.3c0,.4-.3.7-.7.9l-5.9,2.5c-.9.4-1,1.6,0,2.1l5.6,3.2c.3.2.6.5.6.9l.6,6.4c0,1,1.3,1.4,2,.8l4.8-4.4c.3-.3.7-.4,1.1-.3l6.3,1.5c1,.2,1.8-.8,1.4-1.7l-2.7-5.9c-.2-.4,0-.8,0-1.1l3.3-5.5c.5-.8-.2-1.9-1.2-1.8l-6.4.7c-.6.2-1,.1-1.2-.2"/>
  <rect class="cls-7" x="668.6" y="415.5" width="3.1" height="112.4" transform="translate(-63.9 107.3) rotate(-8.7)"/>
  <path class="cls-8" d="M663.9,435.6l1.4-.2c1.4-.2,2.4-1.6,2.2-3l-21.1-137.7c-.2-1.4-1.6-2.4-3-2.2l-1.4.2c-1.4.2-2.4,1.6-2.2,3l21.1,137.7c.2,1.5,1.5,2.4,3,2.2"/>
  <path class="cls-3" d="M652.1,262.3l-1.6-15.8c-.2-1.5-2.2-2-3-.7l-8.7,13.3c-.5.8-1.7,1-2.4.4l-12.3-10c-1.2-1-3,.1-2.7,1.6l3.2,15.6c.2,1-.5,1.9-1.4,2l-15.8,1.6c-1.5.2-2,2.2-.7,3l13.3,8.7c.8.5,1,1.7.4,2.4l-10,12.3c-1,1.2,0,3,1.6,2.7l15.6-3.2c1-.2,1.9.5,2,1.4l1.6,15.8c.2,1.5,2.2,2,3,.7l8.7-13.3c.5-.8,1.7-1,2.4-.4l12.3,10c1.2,1,3-.1,2.7-1.6l-3.2-15.6c-.2-1,.5-1.9,1.4-2l15.8-1.6c1.5-.2,2-2.2.7-3l-13.3-8.7c-.8-.5-1-1.7-.4-2.4l10-12.3c1-1.2,0-3-1.6-2.7l-15.6,3.2c-1,.2-1.9-.4-2-1.4"/>
  <path class="cls-3" d="M635.3,254.5c-3.3-21.4-14.7-40.3-32.2-53.1s-38.9-18.1-60.3-14.8l-.5-2.9c22.2-3.4,44.4,2,62.5,15.3s30,32.9,33.4,55.1l-2.9.4Z"/>
  <path class="cls-3" d="M612.5,253c-8.3-11.3-20.5-18.7-34.4-20.8s-27.7,1.3-39,9.6l-1.8-2.4c11.9-8.8,26.6-12.4,41.2-10.1,14.7,2.2,27.6,10.1,36.3,22l-2.3,1.7Z"/>
  <path class="cls-3" d="M520,236.9l-9.6-3.3c-1.5-.5-2.9.9-2.4,2.4l3.2,9.6c.2.6.1,1.2-.3,1.7l-6.1,8.1c-.9,1.2,0,3,1.5,3h10.2c.6-.1,1.2.2,1.6.7l5.8,8.3c.9,1.3,2.9,1,3.3-.5l3.1-9.7c.2-.6.6-1,1.2-1.2l9.7-3c1.5-.5,1.8-2.4.5-3.3l-8.3-5.9c-.5-.4-.8-.9-.8-1.6l.2-10.2c0-1.6-1.7-2.5-3-1.5l-8.2,6c-.4.5-1.1.6-1.6.4"/>
  <path class="cls-3" d="M523.9,181.2l-5.3-1.8c-.8-.3-1.6.5-1.3,1.3l1.8,5.3c0,.3,0,.7-.2,1l-3.4,4.5c-.5.7,0,1.7.8,1.7h5.6c.3,0,.7.2.9.4l3.2,4.6c.5.7,1.6.5,1.8-.3l1.7-5.4c0-.3.4-.6.7-.7l5.4-1.6c.8-.3,1-1.3.3-1.8l-4.6-3.3c-.3-.2-.4-.5-.4-.9v-5.6c0-.9-.9-1.4-1.6-.9l-4.5,3.3c-.3.2-.6.3-.9.2"/>
  <path class="cls-3" d="M658.2,256.8c-8-15.9-9.4-34.1-3.8-51,5.6-17,17.4-30.7,33.4-38.8l1.3,2.7c-15.2,7.7-26.6,20.8-31.9,37-5.3,16.2-4,33.5,3.6,48.7l-2.6,1.4Z"/>
  <path class="cls-3" d="M699.5,160l4.3-6c.7-.9,2.1-.7,2.4.4l2.2,7c0,.4.5.8.9.9l7,2.2c1.1.3,1.3,1.8.4,2.4l-6,4.2c-.4.3-.6.7-.6,1.1v7.3c0,1.1-1.2,1.8-2.1,1.1l-5.9-4.4c-.4-.3-.8-.3-1.2-.2l-7,2.3c-1.1.4-2.1-.7-1.7-1.7l2.4-6.9c0-.4,0-.9-.2-1.2l-4.4-5.9c-.7-.9,0-2.2,1.1-2.2h7.3c.4.2.8,0,1.1-.4"/>
  <rect class="cls-2" x="1054.9" y="419.9" width="24.6" height="3.4" transform="translate(260.9 1238) rotate(-66.9)"/>
  <path class="cls-3" d="M1059.6,428.6l1.7-4.6c.2-.4.8-.4,1,0l1.6,4.6c0,.3.4.4.7.3l4.4-2.1c.4-.2.9.3.7.7l-2.1,4.4c0,.3,0,.6.3.7l4.6,1.7c.4.2.4.8,0,1l-4.6,1.6c-.3.1-.4.4-.3.7l2.1,4.4c.2.4-.3.9-.7.7l-4.4-2.1c-.3-.1-.6,0-.7.3l-1.7,4.6c-.2.4-.8.4-1,0l-1.6-4.6c0-.3-.4-.4-.7-.3l-4.4,2.1c-.4.2-.9-.3-.7-.7l2.1-4.4c0-.3,0-.6-.3-.7l-4.6-1.7c-.4-.2-.4-.8,0-1l4.6-1.6c.3-.1.4-.4.3-.7l-2.1-4.4c-.2-.4.3-.9.7-.7l4.4,2.1c.2.1.6,0,.7-.3"/>
  <path class="cls-2" d="M1035.9,529.3l-1.3-.6c-1.3-.6-1.9-2.1-1.4-3.4l50.2-117.8c.6-1.3,2.1-1.9,3.4-1.4l1.3.6c1.3.6,1.9,2.1,1.4,3.4l-50.2,117.8c-.6,1.3-2.1,2-3.4,1.4"/>
  <path class="cls-7" d="M1154.7,299.9c1.3-3.2,0-6.8-3.3-8.2l-26.5-11.3c-3.2-1.3-6.8.1-8.2,3.3,0,0-50,117.4-50.1,117.7-2.3,5.5,4.3,13.5,14.8,18s20.9,3.7,23.2-1.8c0-.3,50.1-117.7,50.1-117.7"/>
  <path class="cls-5" d="M1152.9,292.6l-13.7-5.8,10.2,25.4,5.2-12.3c1.2-2.6.4-5.6-1.7-7.3"/>
  <path class="cls-5" d="M1141.4,331.1l-20.5-51c-1.8.5-3.4,1.7-4.2,3.6l-5.4,12.6,21.8,54.1,8.3-19.3Z"/>
  <polygon class="cls-4" points="1125.3 369 1103.5 314.9 1095.7 333.2 1117.5 387.3 1125.3 369"/>
  <path class="cls-5" d="M1071.4,390.3l-4.7,11.1c-2.3,5.5,4.3,13.5,14.8,18,.7.3,1.3.5,2,.8l-12.1-29.9Z"/>
  <path class="cls-5" d="M1079.7,370.7l20.4,50.6c2.2-.8,3.8-2.1,4.5-3.8,0,0,1.8-4.2,4.7-11l-21.8-54.1c-2.7,6.4-5.4,12.6-7.8,18.3"/>
  <path class="cls-16" d="M1136.7,290.9l-30.1-12.8c-3.1-1.3-3.7-5.6-.9-7.6l26.2-19.7,26.2-19.7c2.7-2,6.6-.4,7.1,3l3.9,32.5,3.9,32.5c.4,3.4-3,5.9-6.1,4.6l-30.2-12.8Z"/>
  <path class="cls-1" d="M1124.9,267l-1.1-1.5c-1.1-1.5-.8-3.5.6-4.6l17.2-13.2c1.5-1.1,3.5-.8,4.6.6l1.1,1.5c1.1,1.4.8,3.5-.6,4.6l-17.2,13.2c-1.4,1.1-3.5.8-4.6-.6"/>
  <path class="cls-1" d="M1121.7,273.6c-1.9,1.4-4.5,1.1-6-.8-1.4-1.9-1.1-4.5.8-6,1.9-1.4,4.5-1.1,6,.8,1.4,1.9,1,4.6-.8,6"/>
  <path class="cls-7" d="M390.1,643.8c0-5.2-4.2-9.4-9.4-9.4h-43.8c-5.2,0-9.4,4.2-9.4,9.4v194.3c0,9,14,16.4,31.3,16.4s31.3-7.3,31.3-16.4v-194.3"/>
  <path class="cls-16" d="M383.3,634.7h-22.6l29.4,29.4v-24.2c0-.1-2.8-4.1-6.8-5.2"/>
  <path class="cls-16" d="M390.1,695.4l-59-59.1c-1.1.8-3.7,3.6-3.7,3.6v24.7l62.7,62.7v-31.9Z"/>
  <polygon class="cls-16" points="390.1 757.9 327.5 695.3 327.5 725.5 390.1 788.2 390.1 757.9"/>
  <path class="cls-16" d="M327.5,819.7v18.3c0,9,14,16.4,31.3,16.4s2.2,0,3.3,0l-34.6-34.6Z"/>
  <path class="cls-16" d="M327.5,787.5l58.6,58.6c2.6-2.4,4.1-5.1,4.1-8v-18.1l-62.7-62.7v30.2Z"/>
  <path class="cls-1" d="M346.8,730c0,3.4-2.8,6.2-6.2,6.2s-6.2-2.8-6.2-6.2,2.8-6.2,6.2-6.2,6.2,2.8,6.2,6.2"/>
  <path class="cls-1" d="M335.3,703.1v11.1c0,2.9,2.4,5.3,5.3,5.3s5.3-2.4,5.3-5.3v-.5l-10.6-10.6Z"/>
  <path class="cls-1" d="M340.6,654.4c-2.9,0-5.3,2.4-5.3,5.3v12.7l10.6,10.6v-23.3c0-2.9-2.4-5.3-5.3-5.3"/>
  <path class="cls-5" d="M390.1,639.8c0,4.7-14,8.5-31.3,8.5s-31.3-3.8-31.3-8.5,14-8.5,31.3-8.5,31.3,3.8,31.3,8.5"/>
  <path class="cls-10" d="M374.1,638.9c0,1.9-6.9,3.5-15.3,3.5s-15.3-1.6-15.3-3.5,6.9-3.5,15.3-3.5c8.4,0,15.3,1.6,15.3,3.5"/>
  <rect class="cls-8" x="356.2" y="597.2" width="5.2" height="45.2"/>
  <path class="cls-3" d="M371.3,599.1l.6,12.4c.1,1.8-2.1,2.7-3.3,1.4l-8.4-9.3c-.8-.8-2.1-.8-2.8,0l-8.4,9.3c-1.2,1.3-3.4.4-3.3-1.4l.6-12.4c.1-1.1-.9-2.1-2-2l-12.4.6c-1.8,0-2.7-2.1-1.4-3.3l9.3-8.4c.8-.8.8-2.1,0-2.8l-9.3-8.4c-1.3-1.2-.4-3.4,1.4-3.3l12.4.6c1.1,0,2.1-.9,2-2l-.6-12.4c-.1-1.8,2.1-2.7,3.3-1.4l8.4,9.3c.8.8,2.1.8,2.8,0l8.4-9.3c1.2-1.3,3.4-.4,3.3,1.4l-.6,12.4c-.1,1.1.9,2.1,2,2l12.4-.6c1.8,0,2.7,2.1,1.4,3.3l-9.3,8.4c-.8.8-.8,2.1,0,2.8l9.3,8.4c1.3,1.2.4,3.4-1.4,3.3l-12.4-.6c-1.2,0-2.1.9-2,2"/>
  <polygon class="cls-14" points="335.3 672.4 345.9 683 345.9 713.7 335.3 703.1 335.3 672.4"/>
  <path class="cls-15" d="M258.1,708.4v132.9h0c0,.2,0,.5.1.7,0,0,0,.2.1.3,0,0,0,.2.1.3,0,.2.1.3.2.5,0,0,.1.2.1.2,0,0,.1.2.1.2,3.1,6.1,18.4,10.7,36.7,10.7s33.6-4.6,36.7-10.7c0,0,.1-.2.1-.2,0,0,.1-.2.1-.2.1,0,.1-.3.2-.5,0,0,.1-.2.1-.3s.1-.2.1-.3c0-.2.1-.5.1-.7h0v-133.4l-74.8.5Z"/>
  <path class="cls-12" d="M273.2,783.6h-1.8c-1.8,0-3.3-1.5-3.3-3.3v-45.4c0-1.8,1.5-3.3,3.3-3.3h1.8c1.8,0,3.3,1.5,3.3,3.3v45.4c0,1.8-1.5,3.3-3.3,3.3"/>
  <path class="cls-12" d="M277.2,792c0,2.7-2.2,4.9-4.9,4.9s-4.9-2.2-4.9-4.9,2.2-4.9,4.9-4.9,4.9,2.2,4.9,4.9"/>
  <path class="cls-6" d="M332.7,708.1c0,5.6-16.7,10.2-37.3,10.2s-37.3-4.6-37.3-10.2,16.7-10.2,37.3-10.2c20.6.1,37.3,4.6,37.3,10.2"/>
  <path class="cls-13" d="M313.7,708.8c0,2.3-8.2,4.1-18.3,4.1s-18.3-1.9-18.3-4.1,8.2-4.1,18.3-4.1c10.1-.1,18.3,1.8,18.3,4.1"/>
  <rect class="cls-8" x="293.3" y="672.2" width="4.2" height="40.7"/>
  <path class="cls-3" d="M305.4,675.6l.5,10c.1,1.4-1.7,2.2-2.7,1.1l-6.7-7.4c-.6-.7-1.7-.7-2.3,0l-6.7,7.4c-1,1.1-2.7.3-2.7-1.1l.5-10c0-.9-.7-1.6-1.6-1.6l-10,.5c-1.4,0-2.2-1.7-1.1-2.7l7.4-6.7c.7-.6.7-1.7,0-2.3l-7.4-6.7c-1.1-1-.3-2.7,1.1-2.7l10,.5c.9,0,1.6-.7,1.6-1.6l-.5-10c-.1-1.4,1.7-2.2,2.7-1.1l6.7,7.4c.6.7,1.7.7,2.3,0l6.7-7.4c1-1.1,2.7-.3,2.7,1.1l-.5,10c0,.9.7,1.6,1.6,1.6l10-.5c1.4,0,2.2,1.7,1.1,2.7l-7.4,6.7c-.7.6-.7,1.7,0,2.3l7.4,6.7c1.1,1,.3,2.7-1.1,2.7l-10-.5c-.9,0-1.7.7-1.6,1.6"/>
</svg>